<?xml version="1.0" encoding="UTF-8"?>
<svg xmlns="http://www.w3.org/2000/svg" version="1.1" viewBox="218 411 205 47">
  <defs>
    <style>
      .st1 { fill: #5a5b5b; }
      .st2 { fill: #231815; }
    </style>
  </defs>
  <g>
    <path class="st1" d="M232.61,453.53h-1.86l-.77-1.9h-3.71l-.76,1.9h-1.48l3.2-8h2.14l3.24,8ZM229.51,450.47l-1.41-3.57-1.41,3.57h2.81Z"/>
    <path class="st1" d="M235.51,453.53h-1.74v-8h1.74v8Z"/>
    <path class="st1" d="M248.53,453.53h-1.69l-3.66-5.11c-.06-.08-.15-.21-.28-.38-.06-.08-.14-.2-.26-.37v5.86h-1.4v-8h1.92l3.38,4.71s.23.33.61.86v-5.57h1.37v8Z"/>
    <path class="st1" d="M255.1,451.65l1.46.16c-.19.54-.56.98-1.1,1.32-.55.35-1.23.52-2.06.52-.99,0-1.79-.28-2.39-.83s-.9-1.3-.9-2.24.3-1.63.91-2.22c.61-.59,1.43-.88,2.47-.88s1.8.29,2.36.87c.56.58.83,1.32.83,2.23v.15h-4.91c0,.4.05.72.14.97s.27.45.55.63.61.27,1.02.27c.8,0,1.33-.32,1.61-.96ZM255,449.88c0-.43-.16-.77-.46-1.04-.3-.27-.68-.4-1.13-.4s-.81.13-1.11.38-.47.61-.52,1.07h3.22Z"/>
    <path class="st1" d="M267,447.62l-2.09,5.92h-1.45l-1.29-4.15-1.28,4.15h-1.49l-2.2-5.92h1.71l1.41,3.98,1.23-3.98h1.46l1.25,3.98,1.38-3.98h1.36Z"/>
    <path class="st1" d="M267.24,452.17l1.51-.24c.23.48.74.72,1.53.72,1,0,1.5-.24,1.5-.73,0-.16-.08-.29-.23-.39-.16-.1-.34-.17-.55-.21l-1.3-.21c-1.44-.23-2.16-.81-2.16-1.75,0-.52.23-.97.69-1.33s1.14-.55,2.04-.55c1.51,0,2.43.46,2.76,1.38l-1.44.24c-.15-.45-.58-.67-1.29-.67-.86,0-1.29.22-1.29.67,0,.31.35.52,1.04.64l1.53.26c1.19.2,1.79.77,1.79,1.7,0,.65-.31,1.14-.92,1.46-.61.32-1.34.48-2.18.48-.73,0-1.38-.12-1.94-.37-.56-.24-.93-.62-1.1-1.12Z"/>
    <path class="st1" d="M285.68,453.53h-1.69l-3.66-5.11c-.06-.08-.15-.21-.28-.38-.06-.08-.14-.2-.26-.37v5.86h-1.4v-8h1.92l3.38,4.71s.23.33.62.86v-5.57h1.37v8Z"/>
    <path class="st1" d="M292.25,451.65l1.46.16c-.19.54-.56.98-1.1,1.32s-1.23.52-2.06.52c-.99,0-1.79-.28-2.39-.83-.6-.55-.9-1.3-.9-2.24s.3-1.63.91-2.22c.61-.59,1.43-.88,2.47-.88s1.8.29,2.36.87.83,1.32.83,2.23v.15h-4.91c0,.4.05.72.14.97s.27.45.55.63.62.27,1.03.27c.8,0,1.33-.32,1.61-.96ZM292.15,449.88c0-.43-.16-.77-.46-1.04-.3-.27-.68-.4-1.13-.4s-.81.13-1.11.38-.47.61-.52,1.07h3.22Z"/>
    <path class="st1" d="M298.53,452.49v1.04c-.48.09-.85.13-1.12.13-.43,0-.81-.07-1.12-.21-.31-.14-.54-.34-.68-.59-.14-.25-.22-.63-.22-1.15v-3.06h-.89v-1.04h.98l.15-1.54,1.32-.1v1.64h1.44v1.04h-1.44v2.89c0,.37.08.62.24.76s.47.2.92.2c.13,0,.26,0,.4-.01Z"/>
    <path class="st1" d="M308.85,447.62l-2.09,5.92h-1.45l-1.29-4.15-1.28,4.15h-1.49l-2.2-5.92h1.71l1.41,3.98,1.23-3.98h1.46l1.25,3.98,1.38-3.98h1.36Z"/>
    <path class="st1" d="M312.66,453.66c-1.06,0-1.86-.31-2.42-.94-.56-.63-.83-1.35-.83-2.16,0-.88.31-1.6.92-2.19s1.43-.87,2.43-.87,1.74.28,2.36.85.92,1.3.92,2.21-.32,1.68-.96,2.25-1.45.85-2.43.85ZM312.72,452.55c1.08,0,1.62-.67,1.62-2.01,0-.61-.13-1.08-.39-1.43-.26-.35-.66-.52-1.19-.52s-.97.18-1.24.54-.4.84-.4,1.44c0,.64.14,1.14.43,1.48s.67.51,1.17.51Z"/>
    <path class="st1" d="M319.14,453.53h-1.61v-5.92h1.46v1.41c.21-.55.49-.95.86-1.21s.74-.38,1.12-.38c.05,0,.12,0,.21,0v1.44c-.82,0-1.36.22-1.63.65-.27.43-.4.85-.4,1.26v2.74Z"/>
    <path class="st1" d="M328.9,453.53h-1.7l-1.82-3.04-1.58,1.47v1.56h-1.54v-8h1.54v4.96c.14-.15.25-.26.33-.33l2.83-2.55h1.73l-2.15,1.96,2.37,3.96Z"/>
  </g>
  <g>
    <g>
      <path class="st2" d="M229.56,437.67h-5.58l10.18-19.99c1.07-2.1,3.05-2.9,6.1-2.9s4.98.8,6.01,2.9l9.79,19.99h-5.63l-8.81-18.09c-.26-.53-.73-.77-1.42-.77s-1.16.23-1.46.77l-9.19,18.09Z"/>
      <path class="st2" d="M262.18,437.67h-5.07v-17.99c0-2.93,2.15-4.9,6.66-4.9,4.04,0,5.84,1.6,7.05,4.16l8.46,14.36c.34.53.9.93,1.85.93,1.07,0,1.72-.5,1.72-1.27v-17.79h5.11v17.96c0,2.97-2.19,4.93-6.66,4.93-4.04,0-5.89-1.6-7.09-4.17l-8.46-14.36c-.39-.67-.9-.97-1.8-.97-1.16,0-1.76.5-1.76,1.3v17.79Z"/>
      <path class="st2" d="M296.74,437.67h-5.07v-17.99c0-2.93,2.15-4.9,6.66-4.9,4.04,0,5.84,1.6,7.05,4.16l8.46,14.36c.34.53.9.93,1.85.93,1.07,0,1.72-.5,1.72-1.27v-17.79h5.11v17.96c0,2.97-2.19,4.93-6.66,4.93-4.04,0-5.89-1.6-7.09-4.17l-8.46-14.36c-.39-.67-.9-.97-1.8-.97-1.16,0-1.76.5-1.76,1.3v17.79Z"/>
    </g>
    <g>
      <path class="st2" d="M336.12,421.72l5.87,13.05c.17.38.49.55.95.55s.74-.17.94-.55l6.16-13.05h3.75l-6.82,14.42c-.72,1.51-2.03,2.09-4.04,2.09-1.89,0-3.35-.5-4.07-2.09l-6.47-14.42h3.72Z"/>
      <path class="st2" d="M363.84,425.25c3.58,0,5.1,1.44,5.1,3.89s-1.4,3.65-5.13,3.65h-7.19v.91c0,1.01.66,1.76,2.32,1.76h9.25v2.48h-9.25c-3.78,0-5.27-1.78-5.27-4.18v-4.33c0-2.4,1.49-4.18,5.27-4.18h4.9ZM356.63,430.81h7.1c1.63,0,2.23-.58,2.23-1.51s-.66-1.59-2.15-1.59h-4.87c-1.66,0-2.32.77-2.32,1.76v1.35Z"/>
      <path class="st2" d="M381.34,425.25v2.45h-5.33c-1.35,0-1.95.53-1.95,1.63v8.61h-3.04v-8.99c0-2.55,1.12-3.7,4.09-3.7h6.21Z"/>
      <path class="st2" d="M384.63,425.25v-1.13c0-3.32,1.35-4.38,4.47-4.38h2.72v2.33h-2.09c-1.43,0-2.03.48-2.03,1.9v1.27h4.18v2.45h-4.18v10.24h-3.06v-10.24h-2.06v-2.45h2.06Z"/>
      <path class="st2" d="M409.84,425.25l-9.11,17.79h-3.27l2.84-5.55c-1.72,0-2.32-.46-2.84-1.56l-5.07-10.67h3.21l4.55,9.45c.2.46.34.53.92.53h.4l5.13-9.98h3.24Z"/>
    </g>
  </g>
</svg>
