<?xml version="1.0" encoding="UTF-8"?>
<svg id="_레이어_1" data-name="레이어_1" xmlns="http://www.w3.org/2000/svg" version="1.1" xmlns:xlink="http://www.w3.org/1999/xlink" viewBox="234 344 168 152">
  <!-- Generator: Adobe Illustrator 30.2.1, SVG Export Plug-In . SVG Version: 2.1.1 Build 1)  -->
  <defs>
    <style>
      .st0 {
        fill: #fff;
      }

      .st1 {
        fill: url(#_무제_그라디언트_88);
      }

      .st2 {
        fill: url(#_무제_그라디언트_136);
      }

      .st3 {
        fill: #74afd5;
      }
    </style>
    <linearGradient id="_무제_그라디언트_136" data-name="무제 그라디언트 136" x1="337.66" y1="425.17" x2="396.13" y2="412.42" gradientUnits="userSpaceOnUse">
      <stop offset="0" stop-color="#74afd5"/>
      <stop offset=".82" stop-color="#1b7fc4"/>
    </linearGradient>
    <linearGradient id="_무제_그라디언트_88" data-name="무제 그라디언트 88" x1="306.26" y1="393.69" x2="386.53" y2="467.31" gradientUnits="userSpaceOnUse">
      <stop offset="0" stop-color="#6bbddc"/>
      <stop offset=".11" stop-color="#36b3da"/>
      <stop offset=".44" stop-color="#35b1d8"/>
      <stop offset=".56" stop-color="#31aad1"/>
      <stop offset=".64" stop-color="#2b9ec5"/>
      <stop offset=".71" stop-color="#238db4"/>
      <stop offset=".73" stop-color="#2087ae"/>
      <stop offset="1" stop-color="#17789e"/>
    </linearGradient>
  </defs>
  <path class="st3" d="M297.38,374.75c.83.58,9.03,8.01,11.36,10.32-6.98-.32-34.54-2.41-50.52,1.39-2.57.88-4.34,2.09-5.67,2.81,1.18-7.44,7.41-22.69,16.57-29.67,2.03-1.46,6.51-1.98,9.12,0,6.12,3.51,13.57,10.45,19.14,15.15Z"/>
  <path class="st3" d="M282.42,388.76c1-.17,12.05-.71,15.33-.72-5.17,4.71-26.15,22.69-34.78,36.66-1.2,2.44-1.6,4.55-2.03,6-4.42-6.11-10.78-21.3-9.22-32.71.4-2.47,3.22-6,6.46-6.44,6.81-1.84,16.98-2.19,24.25-2.79Z"/>
  <path class="st3" d="M281.55,409.14c.6-.81,8.2-8.86,10.56-11.14-.46,6.98-3.14,34.48.31,50.54.83,2.59,2,4.39,2.69,5.73-7.42-1.34-22.53-7.89-29.31-17.2-1.42-2.06-1.84-6.56.19-9.12,3.64-6.04,10.73-13.34,15.55-18.81Z"/>
  <path class="st2" d="M295,424.37c-.11-1.01-.05-12.07.12-15.35,4.42,5.42,21.22,27.35,34.71,36.73,2.37,1.33,4.46,1.84,5.88,2.35-6.34,4.08-21.85,9.6-33.17,7.42-2.44-.54-5.82-3.54-6.08-6.8-1.46-6.9-1.26-17.08-1.46-24.36Z"/>
  <path class="st3" d="M331.59,440.4c-1.21-1.09-3-2.69-5.19-4.61-5.32-4.66-7.76-6.74-10.75-9.18-1.95-1.59-8.95-8.54-11.03-10.66,9.94,1.17,39.78.36,45.55-.61-1.69,1.83-3.32,2.79-4.52,3.33-2.44,1.1-3.65.73-6.38,2.13-1.61.83-2.69,1.48-3.65,2.72-1.44,1.86-.98,2.82-1.46,6.18-.32,2.2-.07,2.82-1.46,4.45-1.49,1.74-.95,4.3-1.11,6.25Z"/>
  <path class="st3" d="M318.34,375.97c.16,1,.63,12.06.62,15.33-4.68-5.2-22.53-26.29-36.45-35.01-2.43-1.21-4.54-1.62-5.99-2.07,6.13-4.38,21.36-10.65,32.77-9.02,2.47.42,5.98,3.25,6.4,6.5,1.8,6.82,2.08,17,2.64,24.26Z"/>
  <path class="st3" d="M332.33,391.11c-.58.83-7.94,9.09-10.23,11.44.26-6.99,2.13-34.55-1.79-50.51-.9-2.56-2.13-4.33-2.86-5.65,7.45,1.12,22.75,7.23,29.8,16.34,1.48,2.02,2.03,6.5.07,9.12-3.46,6.14-10.34,13.65-15,19.26Z"/>
  <path class="st3" d="M330.46,412.04c-1,.18-12.04.88-15.32.94,5.1-4.78,25.82-23.06,34.25-37.16,1.16-2.45,1.53-4.57,1.94-6.03,4.51,6.04,11.09,21.14,9.7,32.58-.37,2.47-3.13,6.05-6.37,6.54-6.78,1.94-16.95,2.43-24.2,3.14Z"/>
  <g>
    <path class="st1" d="M339.16,424.83c-.89,1.18-1.28,2.24-1.46,3.04-.32,1.39.01,1.78-.31,3.69-.14.83-.32,1.93-.93,3.19-.68,1.41-1.1,1.39-1.42,2.48-.08.29-.52,1.8.18,3.17.33.65.55.55,1.79,1.88.88.95,1.32,1.43,1.66,2.13.35.71.22.83.71,2.75.35,1.35.53,2.03.84,2.48.8,1.14,2.01,1.58,2.3,1.68.23.08.85.17,2.08.35,1.4.21,1.56.19,2.04.35.69.24,1.2.55,1.73.89.57.36.59.44,1.37.97.88.6,1.32.91,1.73,1.06.28.11,1.3.49,2.48.22.32-.07.81-.31,1.77-.8.41-.2.89-.46,1.51-.8,1.57-.87,1.38-.88,1.9-1.11.52-.22,1.27-.36,2.79-.62,1.36-.24,1.49-.21,1.95-.4.3-.12,1.1-.46,1.77-1.24.31-.36.54-.86.97-1.86.42-.95.51-1.26,1.02-2.48.68-1.64.87-1.93.97-2.08.38-.56.83-1.03,1.28-1.51.81-.85.91-.79,1.15-1.2.5-.81.49-1.66.49-2.08,0-.79-.21-1.38-.4-1.9-.29-.81-.5-.97-.89-1.77-.1-.2-.64-1.34-.89-2.8-.1-.56-.02-.39-.18-2.82-.09-1.3-.13-1.7-.27-2.21-.15-.56-.31-1.19-.8-1.86-.44-.61-.93-.95-1.28-1.2-.67-.46-1.24-.67-1.99-.93-.79-.28-.86-.23-2.21-.62-1.1-.32-1.66-.48-2.26-.75-.77-.35-1.33-.72-1.77-1.02-1.12-.76-1.1-.95-1.99-1.51-.57-.35-1.24-.76-2.21-.97-.47-.1-1.4-.3-2.48,0-.59.16-1.1.49-2.13,1.15-.82.53-.88.65-1.64,1.11-.73.44-1.31.71-1.68.89-.96.45-1.79.74-2.39.93-1.27.4-1.42.31-2.21.58-.68.23-1.64.66-2.7,1.55Z"/>
    <path class="st0" d="M343.86,435.29c.75-.8,1.93-.97,2.92,0,.07.07.21.11.49.31,1.93,1.37,3.32,3.28,3.32,3.28h0s.64.02.66.02c0,0,8.27-8.33,8.33-8.39.71-.73,1.91-.77,2.84-.04s.63,1.77.31,2.48c-.2.44-.54.67-.62.75-1.97,1.97-9.12,9.32-9.75,9.79-.78.59-1.42.69-2.92,0,0,0-.66-.67-.84-.84-2.39-2.35-4.96-4.61-4.96-4.61-.69-1.16-.41-2.07.22-2.75Z"/>
  </g>
</svg>