<?xml version="1.0" encoding="UTF-8"?>
<svg id="_ë ì´ì´_1" data-name="ë ì´ì´_1" xmlns="http://www.w3.org/2000/svg" version="1.1" xmlns:xlink="http://www.w3.org/1999/xlink" viewBox="145 398 275 65">
  <defs>
    <style>
      .st0 { fill: #fff; }
      .st1 { fill: #5a5b5b; }
      .st2 { fill: #231815; }
      .st3 { fill: url(#grad88); }
      .st4 { fill: url(#grad136); }
      .st5 { fill: #74afd5; }
    </style>
    <linearGradient id="grad136" x1="197.6" y1="444.19" x2="228.13" y2="437.53" gradientUnits="userSpaceOnUse">
      <stop offset="0" stop-color="#74afd5"/>
      <stop offset=".82" stop-color="#1b7fc4"/>
    </linearGradient>
    <linearGradient id="grad88" x1="181.2" y1="427.75" x2="223.11" y2="466.19" gradientUnits="userSpaceOnUse">
      <stop offset="0" stop-color="#6bbddc"/>
      <stop offset=".11" stop-color="#36b3da"/>
      <stop offset=".44" stop-color="#35b1d8"/>
      <stop offset=".56" stop-color="#31aad1"/>
      <stop offset=".64" stop-color="#2b9ec5"/>
      <stop offset=".71" stop-color="#238db4"/>
      <stop offset=".73" stop-color="#2087ae"/>
      <stop offset="1" stop-color="#17789e"/>
    </linearGradient>
  </defs>
  <g>
    <path class="st5" d="M176.57,417.86c.43.31,4.72,4.18,5.93,5.39-3.65-.16-18.03-1.26-26.38.73-1.34.46-2.27,1.09-2.96,1.47.62-3.89,3.87-11.85,8.65-15.49,1.06-.76,3.4-1.03,4.76,0,3.19,1.83,7.08,5.45,9.99,7.91Z"/>
    <path class="st5" d="M168.75,425.17c.52-.09,6.29-.37,8-.37-2.7,2.46-13.65,11.84-18.16,19.14-.62,1.27-.83,2.38-1.06,3.13-2.31-3.19-5.63-11.12-4.82-17.08.21-1.29,1.68-3.13,3.37-3.36,3.55-.96,8.87-1.14,12.66-1.46Z"/>
    <path class="st5" d="M168.3,435.82c.31-.42,4.28-4.62,5.51-5.81-.24,3.64-1.64,18,.16,26.39.43,1.35,1.04,2.29,1.41,2.99-3.87-.7-11.76-4.12-15.3-8.98-.74-1.08-.96-3.42.1-4.76,1.9-3.15,5.6-6.97,8.12-9.82Z"/>
    <path class="st4" d="M175.32,443.77c-.06-.53-.02-6.3.06-8.01,2.31,2.83,11.08,14.28,18.12,19.18,1.24.69,2.33.96,3.07,1.23-3.31,2.13-11.41,5.01-17.32,3.88-1.28-.28-3.04-1.85-3.18-3.55-.76-3.6-.66-8.92-.76-12.72Z"/>
    <path class="st5" d="M194.43,452.14c-.63-.57-1.56-1.41-2.71-2.41-2.78-2.43-4.05-3.52-5.61-4.79-1.02-.83-4.67-4.46-5.76-5.56,5.19.61,20.77.19,23.78-.32-.88.96-1.74,1.46-2.36,1.74-1.27.58-1.91.38-3.33,1.11-.84.43-1.41.77-1.91,1.42-.75.97-.51,1.47-.76,3.23-.17,1.15-.03,1.47-.76,2.32-.78.91-.5,2.25-.58,3.26Z"/>
    <path class="st5" d="M187.51,418.5c.09.52.33,6.29.33,8.01-2.44-2.71-11.76-13.73-19.03-18.28-1.27-.63-2.37-.85-3.13-1.08,3.2-2.29,11.15-5.56,17.11-4.71,1.29.22,3.12,1.7,3.34,3.39.94,3.56,1.09,8.87,1.38,12.67Z"/>
    <path class="st5" d="M194.81,426.4c-.3.43-4.15,4.75-5.34,5.97.14-3.65,1.11-18.04-.94-26.37-.47-1.34-1.11-2.26-1.49-2.95,3.89.59,11.88,3.77,15.56,8.53.77,1.05,1.06,3.39.04,4.76-1.81,3.21-5.4,7.13-7.83,10.05Z"/>
    <path class="st5" d="M193.84,437.33c-.52.1-6.29.46-8,.49,2.66-2.5,13.48-12.04,17.88-19.4.61-1.28.8-2.39,1.01-3.15,2.35,3.15,5.79,11.04,5.06,17.01-.19,1.29-1.63,3.16-3.32,3.41-3.54,1.01-8.85,1.27-12.64,1.64Z"/>
    <g>
      <path class="st3" d="M198.38,444.01c-.46.61-.67,1.17-.76,1.59-.17.72,0,.93-.16,1.93-.07.43-.17,1.01-.49,1.67-.35.74-.57.73-.74,1.3-.04.15-.27.94.09,1.65.17.34.29.29.93.98.46.5.69.75.87,1.11.18.37.11.43.37,1.43.18.7.27,1.06.44,1.3.42.6,1.05.83,1.2.88.12.04.44.09,1.09.19.73.11.82.1,1.06.19.36.12.63.29.9.46.3.19.31.23.72.51.46.32.69.47.9.56.15.06.68.25,1.3.12.17-.04.42-.16.93-.42.21-.11.47-.24.79-.42.82-.46.72-.46.99-.58.27-.12.67-.19,1.46-.32.71-.12.78-.11,1.02-.21.15-.06.57-.24.93-.65.16-.19.28-.45.51-.97.22-.5.27-.66.53-1.3.36-.86.45-1.01.51-1.09.2-.29.43-.54.67-.79.42-.44.47-.41.6-.62.26-.42.26-.87.25-1.09,0-.41-.11-.72-.21-.99-.15-.43-.26-.51-.46-.93-.05-.1-.33-.7-.46-1.46-.05-.29,0-.2-.09-1.47-.04-.68-.07-.89-.14-1.16-.08-.29-.16-.62-.42-.97-.23-.32-.48-.5-.67-.62-.35-.24-.65-.35-1.04-.49-.41-.14-.45-.12-1.16-.32-.57-.17-.87-.25-1.18-.39-.4-.18-.69-.38-.93-.53-.59-.39-.57-.5-1.04-.79-.3-.18-.65-.4-1.16-.51-.24-.05-.73-.15-1.3,0-.31.08-.57.26-1.11.6-.43.27-.46.34-.86.58-.38.23-.69.37-.88.46-.5.23-.94.39-1.25.49-.66.21-.74.16-1.16.3-.35.12-.86.35-1.41.81Z"/>
      <path class="st0" d="M200.83,449.47c.39-.42,1.01-.51,1.53,0,.04.04.11.06.25.16,1.01.72,1.73,1.71,1.73,1.71h0s.34,0,.35,0c0,0,4.32-4.35,4.35-4.38.37-.38,1-.4,1.48-.02s.33.92.16,1.29c-.1.23-.28.35-.32.39-1.03,1.03-4.76,4.86-5.09,5.11-.41.31-.74.36-1.53,0,0,0-.35-.35-.44-.44-1.25-1.23-2.59-2.41-2.59-2.41-.36-.61-.22-1.08.12-1.43Z"/>
    </g>
  </g>
  <g>
    <path class="st2" d="M229.56,437.67h-5.58l10.18-19.99c1.07-2.1,3.05-2.9,6.1-2.9s4.98.8,6.01,2.9l9.79,19.99h-5.63l-8.81-18.09c-.26-.53-.73-.77-1.42-.77s-1.16.23-1.46.77l-9.19,18.09Z"/>
    <path class="st2" d="M262.18,437.67h-5.07v-17.99c0-2.93,2.15-4.9,6.66-4.9,4.04,0,5.84,1.6,7.05,4.16l8.46,14.36c.34.53.9.93,1.85.93,1.07,0,1.72-.5,1.72-1.27v-17.79h5.11v17.96c0,2.97-2.19,4.93-6.66,4.93-4.04,0-5.89-1.6-7.09-4.17l-8.46-14.36c-.39-.67-.9-.97-1.8-.97-1.16,0-1.76.5-1.76,1.3v17.79Z"/>
    <path class="st2" d="M296.74,437.67h-5.07v-17.99c0-2.93,2.15-4.9,6.66-4.9,4.04,0,5.84,1.6,7.05,4.16l8.46,14.36c.34.53.9.93,1.85.93,1.07,0,1.72-.5,1.72-1.27v-17.79h5.11v17.96c0,2.97-2.19,4.93-6.66,4.93-4.04,0-5.89-1.6-7.09-4.17l-8.46-14.36c-.39-.67-.9-.97-1.8-.97-1.16,0-1.76.5-1.76,1.3v17.79Z"/>
  </g>
  <g>
    <path class="st1" d="M232.61,453.53h-1.86l-.77-1.9h-3.71l-.76,1.9h-1.48l3.2-8h2.14l3.24,8ZM229.51,450.47l-1.41-3.57-1.41,3.57h2.81Z"/>
    <path class="st1" d="M235.51,453.53h-1.74v-8h1.74v8Z"/>
    <path class="st1" d="M248.53,453.53h-1.69l-3.66-5.11c-.06-.08-.15-.21-.28-.38-.06-.08-.14-.2-.26-.37v5.86h-1.4v-8h1.92l3.38,4.71s.23.33.61.86v-5.57h1.37v8Z"/>
    <path class="st1" d="M255.1,451.65l1.46.16c-.19.54-.56.98-1.1,1.32-.55.35-1.23.52-2.06.52-.99,0-1.79-.28-2.39-.83s-.9-1.3-.9-2.24.3-1.63.91-2.22c.61-.59,1.43-.88,2.47-.88s1.8.29,2.36.87c.56.58.83,1.32.83,2.23v.15h-4.91c0,.4.05.72.14.97s.27.45.55.63.61.27,1.02.27c.8,0,1.33-.32,1.61-.96ZM255,449.88c0-.43-.16-.77-.46-1.04-.3-.27-.68-.4-1.13-.4s-.81.13-1.11.38-.47.61-.52,1.07h3.22Z"/>
    <path class="st1" d="M267,447.62l-2.09,5.92h-1.45l-1.29-4.15-1.28,4.15h-1.49l-2.2-5.92h1.71l1.41,3.98,1.23-3.98h1.46l1.25,3.98,1.38-3.98h1.36Z"/>
    <path class="st1" d="M267.24,452.17l1.51-.24c.23.48.74.72,1.53.72,1,0,1.5-.24,1.5-.73,0-.16-.08-.29-.23-.39-.16-.1-.34-.17-.55-.21l-1.3-.21c-1.44-.23-2.16-.81-2.16-1.75,0-.52.23-.97.69-1.33s1.14-.55,2.04-.55c1.51,0,2.43.46,2.76,1.38l-1.44.24c-.15-.45-.58-.67-1.29-.67-.86,0-1.29.22-1.29.67,0,.31.35.52,1.04.64l1.53.26c1.19.2,1.79.77,1.79,1.7,0,.65-.31,1.14-.92,1.46-.61.32-1.34.48-2.18.48-.73,0-1.38-.12-1.94-.37-.56-.24-.93-.62-1.1-1.12Z"/>
    <path class="st1" d="M336.12,421.72l5.87,13.05c.17.38.49.55.95.55s.74-.17.94-.55l6.16-13.05h3.75l-6.82,14.42c-.72,1.51-2.03,2.09-4.04,2.09-1.89,0-3.35-.5-4.07-2.09l-6.47-14.42h3.72Z"/>
    <path class="st1" d="M363.84,425.25c3.58,0,5.1,1.44,5.1,3.89s-1.4,3.65-5.13,3.65h-7.19v.91c0,1.01.66,1.76,2.32,1.76h9.25v2.48h-9.25c-3.78,0-5.27-1.78-5.27-4.18v-4.33c0-2.4,1.49-4.18,5.27-4.18h4.9ZM356.63,430.81h7.1c1.63,0,2.23-.58,2.23-1.51s-.66-1.59-2.15-1.59h-4.87c-1.66,0-2.32.77-2.32,1.76v1.35Z"/>
    <path class="st1" d="M381.34,425.25v2.45h-5.33c-1.35,0-1.95.53-1.95,1.63v8.61h-3.04v-8.99c0-2.55,1.12-3.7,4.09-3.7h6.21Z"/>
    <path class="st1" d="M384.63,425.25v-1.13c0-3.32,1.35-4.38,4.47-4.38h2.72v2.33h-2.09c-1.43,0-2.03.48-2.03,1.9v1.27h4.18v2.45h-4.18v10.24h-3.06v-10.24h-2.06v-2.45h2.06Z"/>
    <path class="st1" d="M409.84,425.25l-9.11,17.79h-3.27l2.84-5.55c-1.72,0-2.32-.46-2.84-1.56l-5.07-10.67h3.21l4.55,9.45c.2.46.34.53.92.53h.4l5.13-9.98h3.24Z"/>
  </g>
</svg>
